<?xml version="1.0" encoding="UTF-8"?>
<svg width="800px" height="800px" viewBox="0 0 24 24" xmlns="http://www.w3.org/2000/svg">
    <title>LeetCode</title>
    <desc>LeetCode Icon</desc>
    <path d="M5.973 4C5.973 3.44772 6.42072 3 6.973 3H17.027C17.5793 3 18.027 3.44772 18.027 4V20C18.027 20.5523 17.5793 21 17.027 21H6.973C6.42072 21 5.973 20.5523 5.973 20V4ZM17.03 4.6V19.4H7.97V4.6H17.03ZM12 8.4C11.2064 8.4 10.5 9.1064 10.5 9.9C10.5 10.6936 11.2064 11.4 12 11.4C12.7936 11.4 13.5 10.6936 13.5 9.9C13.5 9.1064 12.7936 8.4 12 8.4ZM12 9.9C12.2652 9.9 12.5 10.1348 12.5 10.4C12.5 10.6652 12.2652 10.9 12 10.9C11.7348 10.9 11.5 10.6652 11.5 10.4C11.5 10.1348 11.7348 9.9 12 9.9ZM15 12.9H9V14.4H15V12.9Z" fill="#f9f9f9"/>
</svg>
