<?xml version="1.0" encoding="UTF-8"?>
<svg width="800px" height="800px" viewBox="0 0 24 24" xmlns="http://www.w3.org/2000/svg">
    <title>LinkedIn</title>
    <desc>LinkedIn Icon</desc>
    <path d="M4.98,3C4.98,4.1 5.87,5 6.98,5C8.08,5 8.98,4.1 8.98,3C8.98,1.9 8.08,1 6.98,1C5.87,1 4.98,1.9 4.98,3ZM3,3C3,1.35 4.35,0 6,0C7.65,0 9,1.35 9,3C9,4.65 7.65,6 6,6C4.35,6 3,4.65 3,3ZM6.98,8.5H6.97C5.29,8.5 4.6,9.49 4.6,10.89V19.41H9.36V10.89C9.36,9.49 8.67,8.5 6.98,8.5ZM20.02,8.5H16.73V10.1H16.72V10.1C16.72,9.1 16.24,8.5 15.25,8.5C14.65,8.5 14.15,8.73 13.85,9.05V8.5H12.16V19.41H13.83V14.2C13.83,13.2 14.45,12.8 15.25,12.8C16.45,12.8 17.25,13.6 17.25,14.2V19.41H19.92V14.2C19.92,12.1 18.32,10.5 16.32,10.5C14.94,10.5 13.85,11.39 13.85,12.77V13.8H13.84C13.64,13.89 13.41,14.02 13.16,14.16H13.16V10.1H16.72V10.1H16.73C16.72,10.1 16.72,10.1 16.72,10.1C16.72,10.1 20.02,8.5 20.02,8.5Z" fill="#ffffff"/>
</svg>
